ply
format ascii 1.0
element vertex 20
property float x
property float y
property float z
property float nx
property float ny
property float nz
property float texture_u
property float texture_v
property uchar red
property uchar green
property uchar blue
property uchar alpha
element face 12
property list uchar int vertex_index
end_header
0.848363 0.0 -1.68174 0.0 1.5708 0.0 1.0 0.0 253 208 36 255
0.848363 0.0 1.62735 0.0 1.5708 0.0 1.0 1.0 251 192 32 255
3.85137 0.0 1.62735 0.0 1.5708 0.0 0.0 1.0 205 0 0 255
3.85137 0.0 -1.68174 0.0 1.5708 0.0 0.0 0.0 202 2 2 255
0.848363 2.94767 -1.68174 0.0 -1.5708 0.0 0.0 0.0 248 183 31 255
3.85137 2.94767 -1.68174 0.0 -1.5708 0.0 1.0 0.0 35 45 255 255
3.85137 2.94767 1.62735 0.0 -1.5708 0.0 1.0 1.0 0 208 36 255
0.848363 2.94767 1.62735 0.0 -1.5708 0.0 0.0 1.0 205 7 1 255
0.848363 0.0 -1.68174 0.0 1.5708 0.0 0.0 0.0 253 208 36 255
3.85137 0.0 -1.68174 0.0 1.5708 0.0 1.0 0.0 202 2 2 255
3.85137 2.94767 -1.68174 0.0 -1.5708 0.0 1.0 1.0 35 45 255 255
0.848363 2.94767 -1.68174 0.0 -1.5708 0.0 0.0 1.0 248 183 31 255
3.85137 0.0 1.62735 0.0 1.5708 0.0 1.0 0.0 205 0 0 255
3.85137 2.94767 -1.68174 0.0 -1.5708 0.0 0.0 1.0 35 45 255 255
3.85137 0.0 1.62735 0.0 1.5708 0.0 0.0 0.0 205 0 0 255
0.848363 0.0 1.62735 0.0 1.5708 0.0 1.0 0.0 251 192 32 255
0.848363 2.94767 1.62735 0.0 -1.5708 0.0 1.0 1.0 205 7 1 255
3.85137 2.94767 1.62735 0.0 -1.5708 0.0 0.0 1.0 0 208 36 255
0.848363 0.0 1.62735 0.0 1.5708 0.0 0.0 0.0 251 192 32 255
0.848363 2.94767 -1.68174 0.0 -1.5708 0.0 1.0 1.0 248 183 31 255
3 0 1 2
3 2 3 0
3 4 5 6
3 6 7 4
3 8 9 10
3 10 11 8
3 3 12 6
3 6 13 3
3 14 15 16
3 16 17 14
3 18 0 19
3 19 7 18

