ply
format ascii 1.0
element vertex 223
property float x
property float y
property float z
property float nx
property float ny
property float nz
property float texture_u
property float texture_v
property uchar red
property uchar green
property uchar blue
property uchar alpha
element face 352
property list uchar int vertex_index
end_header
2.91097 0.0 -2.44259 0.0 2.79253 0.0 0.195327 0.0 0 0 0 255
1.9 0.0 -3.2909 0.0 2.79253 0.0 0.0873681 0.0 0 0 0 255
0.659861 0.0 -3.74227 0.0 2.79253 0.0 0.029179 0.0 0 0 0 255
-0.659865 0.0 -3.74227 0.0 2.79253 0.0 0.0277777 0.0 0 0 0 255
-1.9 0.0 -3.2909 0.0 2.79253 0.0 0.0833334 0.0 0 0 0 255
-2.91097 0.0 -2.44259 0.0 2.79253 0.0 0.189145 0.0 0 0 0 255
-3.57083 0.0 -1.29968 0.0 2.79253 0.0 0.332451 0.0 0 0 0 255
-3.8 0.0 5.73784e-07 0.0 2.79253 0.0 0.495965 0.0 0 0 0 255
-3.57083 0.0 1.29968 0.0 2.79253 0.0 0.659966 0.0 0 0 0 255
-2.91097 0.0 2.44259 0.0 2.79253 0.0 0.804673 0.0 0 0 0 255
-1.9 0.0 3.2909 0.0 2.79253 0.0 0.912632 0.0 0 0 0 255
-0.659864 0.0 3.74227 0.0 2.79253 0.0 0.970821 0.0 3 0 0 255
0.659863 0.0 3.74227 0.0 2.79253 0.0 0.972222 0.0 0 0 0 255
1.9 0.0 3.2909 0.0 2.79253 0.0 0.916667 0.0 0 0 0 255
2.91097 0.0 2.44259 0.0 2.79253 0.0 0.861111 0.0 6 6 6 255
3.57083 0.0 1.29968 0.0 2.79253 0.0 0.805556 0.0 0 0 0 255
3.8 0.0 0.0 0.0 2.79253 0.0 0.75 0.0 0 0 0 255
3.57083 0.0 -1.29968 0.0 2.79253 0.0 0.340034 0.0 0 0 0 255
3.57083 1.26062 1.29968 -0.939693 0.0 -0.34202 0.805556 0.2 0 0 0 255
3.8 1.26062 0.0 -1.0 0.0 1.92654e-07 0.75 0.2 0 0 0 255
2.91097 1.26062 2.44259 -0.766044 0.0 -0.642788 0.861111 0.2 0 0 0 255
1.9 1.26062 3.2909 -0.5 0.0 -0.866025 0.916667 0.2 0 0 0 255
0.659863 0.937013 3.74227 -0.805865 0.0 -3.78489 0.972222 0.148659 0 0 0 255
0.963952 1.26062 3.63159 -1.34311 0.0 -3.69016 0.9586 0.2 0 0 0 255
0.659863 0.0 3.74227 0.0 2.79253 0.0 -0.0277778 0.0 0 0 0 255
-0.659864 0.0 3.74227 0.0 2.79253 0.0 0.0277778 0.0 3 0 0 255
-0.659864 0.937013 3.74227 0.805866 -2.01525e-07 -3.7849 0.0277778 0.148659 0 0 0 255
0.659863 0.937013 3.74227 -0.805865 0.0 -3.78489 -0.0277778 0.148659 0 0 0 255
-1.9 0.0 3.2909 0.0 2.79253 0.0 0.0833333 0.0 0 0 0 255
-1.9 1.26062 3.2909 0.5 0.0 -0.866025 0.0833333 0.2 0 0 0 255
-0.963952 1.26062 3.63159 1.34311 -8.87226e-07 -3.69016 0.0414004 0.2 0 0 0 255
-2.91097 0.0 2.44259 0.0 2.79253 0.0 0.138889 0.0 0 0 0 255
-2.91097 1.26062 2.44259 0.766044 0.0 -0.642788 0.138889 0.2 0 0 0 255
-3.57083 0.0 1.29968 0.0 2.79253 0.0 0.194444 0.0 0 0 0 255
-3.57083 1.26062 1.29968 0.939693 0.0 -0.34202 0.194444 0.2 0 0 0 255
-3.8 0.0 5.73784e-07 0.0 2.79253 0.0 0.25 0.0 0 0 0 255
-3.8 1.26062 5.73784e-07 1.0 0.0 0.0 0.25 0.2 0 0 0 255
-3.57083 0.0 -1.29968 0.0 2.79253 0.0 0.305556 0.0 0 0 0 255
-3.57083 1.26062 -1.29968 0.939693 0.0 0.34202 0.305556 0.2 0 0 0 255
-2.91097 0.0 -2.44259 0.0 2.79253 0.0 0.361111 0.0 0 0 0 255
-2.91097 1.26062 -2.44259 0.766045 0.0 0.642787 0.361111 0.2 0 0 0 255
-1.9 0.0 -3.2909 0.0 2.79253 0.0 0.416667 0.0 0 0 0 255
-1.9 1.26062 -3.2909 0.5 0.0 0.866025 0.416667 0.2 0 0 0 255
-0.659865 0.0 -3.74227 0.0 2.79253 0.0 0.472222 0.0 0 0 0 255
-0.659865 1.26062 -3.74227 0.173649 0.0 0.984808 0.472222 0.2 0 0 0 255
0.659861 0.0 -3.74227 0.0 2.79253 0.0 0.527778 0.0 0 0 0 255
0.659861 1.26062 -3.74227 -0.173648 0.0 0.984808 0.527778 0.2 0 0 0 255
1.9 0.0 -3.2909 0.0 2.79253 0.0 0.583333 0.0 0 0 0 255
1.9 1.26062 -3.2909 -0.5 0.0 0.866026 0.583333 0.2 7 7 7 255
2.91097 0.0 -2.44259 0.0 2.79253 0.0 0.638889 0.0 0 0 0 255
2.91097 1.26062 -2.44259 -0.766044 0.0 0.642788 0.638889 0.2 0 0 0 255
3.57083 0.0 -1.29968 0.0 2.79253 0.0 0.694444 0.0 0 0 0 255
3.57083 1.26062 -1.29968 -0.939692 0.0 0.342021 0.694444 0.2 0 0 0 255
3.57083 2.24339 1.29968 -0.939693 0.0 -0.34202 0.805556 0.4 0 0 0 255
3.8 2.24339 0.0 -1.0 0.0 1.73389e-07 0.75 0.4 0 0 0 255
2.91097 2.24339 2.44259 -0.766044 0.0 -0.642788 0.861111 0.4 1 0 0 255
1.9 2.24339 3.2909 -0.5 0.0 -0.866025 0.916667 0.4 0 0 0 255
0.963952 2.24339 3.63159 -1.34311 -9.42244e-07 -3.69016 0.9586 0.4 0 0 0 255
-1.9 2.24339 3.2909 0.5 0.0 -0.866025 0.0833333 0.4 0 0 0 255
-0.963952 2.24339 3.63159 1.34311 0.0 -3.69016 0.0414004 0.4 10 0 0 255
-2.91097 2.24339 2.44259 0.766044 0.0 -0.642788 0.138889 0.4 0 0 0 255
-3.57083 2.24339 1.29968 0.939693 0.0 -0.34202 0.194444 0.4 0 0 0 255
-3.8 2.24339 5.96046e-07 1.0 0.0 0.0 0.25 0.4 0 0 0 255
-3.57083 2.24339 -1.29968 0.939693 0.0 0.34202 0.305556 0.4 0 0 0 255
-2.91097 2.24339 -2.44259 0.766045 0.0 0.642787 0.361111 0.4 0 0 0 255
-1.9 2.24339 -3.2909 0.5 0.0 0.866025 0.416667 0.4 0 0 0 255
-0.659865 2.24339 -3.74227 0.173649 0.0 0.984808 0.472222 0.4 0 0 0 255
0.659861 2.24339 -3.74227 -0.173648 0.0 0.984808 0.527778 0.4 0 0 0 255
1.9 2.24339 -3.2909 -0.5 0.0 0.866026 0.583333 0.4 0 0 0 255
2.91097 2.24339 -2.44259 -0.766044 0.0 0.642788 0.638889 0.4 0 0 0 255
3.57083 2.24339 -1.29968 -0.939692 0.0 0.342021 0.694444 0.4 0 0 0 255
3.57083 8.44783 1.29968 -0.939693 0.0 -0.34202 0.805556 0.6 0 0 0 255
3.8 8.44783 0.0 -1.0 0.0 1.92654e-07 0.75 0.6 0 0 0 255
2.91097 8.44783 2.44259 -0.766044 0.0 -0.642788 0.861111 0.6 0 0 0 255
1.9 8.44783 3.2909 -0.5 0.0 -0.866025 0.916667 0.6 0 0 0 255
0.659863 2.567 3.74227 -0.805866 -3.25388e-07 -3.7849 0.972222 0.410431 3 0 0 255
0.659863 8.00308 3.74227 -0.805865 -1.66e-07 -3.78489 0.972222 0.585663 0 0 0 255
1.07779 8.44783 3.59016 -1.34311 1.69853e-07 -3.69016 0.9535 0.6 0 0 0 255
0.659863 2.567 3.74227 -0.805866 -3.25388e-07 -3.7849 -0.0277778 0.410431 3 0 0 255
-0.659864 2.567 3.74227 0.805867 -1.83655e-07 -3.78489 0.0277778 0.410431 0 0 0 255
-0.659863 8.00308 3.74227 0.805866 -3.22163e-07 -3.78489 0.0277778 0.585663 9 0 0 255
0.659863 8.00308 3.74227 -0.805865 -1.66e-07 -3.78489 -0.0277778 0.585663 0 0 0 255
-1.9 8.44783 3.2909 0.5 0.0 -0.866025 0.0833333 0.6 1 0 0 255
-1.07779 8.44783 3.59016 1.34311 -6.67795e-07 -3.69016 0.0465002 0.6 0 0 0 255
-2.91097 8.44783 2.44259 0.766044 0.0 -0.642788 0.138889 0.6 0 0 0 255
-3.57083 8.44783 1.29968 0.939693 0.0 -0.34202 0.194444 0.6 0 0 0 255
-3.8 8.44783 5.33623e-07 1.0 0.0 0.0 0.25 0.6 0 0 0 255
-3.57083 8.44783 -1.29968 0.939693 0.0 0.34202 0.305556 0.6 0 0 0 255
-2.91097 8.44783 -2.44259 0.766045 0.0 0.642787 0.361111 0.6 0 0 0 255
-1.9 8.44783 -3.2909 0.5 0.0 0.866025 0.416667 0.6 0 0 0 255
-0.659865 8.44783 -3.74227 0.173649 0.0 0.984808 0.472222 0.6 0 0 0 255
0.659861 8.44783 -3.74227 -0.173648 0.0 0.984808 0.527778 0.6 0 0 0 255
1.9 8.44783 -3.2909 -0.499999 0.0 0.866026 0.583333 0.6 0 0 0 255
2.91097 8.44783 -2.44259 -0.766044 0.0 0.642788 0.638889 0.6 0 0 0 255
3.57083 8.44783 -1.29968 -0.939692 0.0 0.342021 0.694444 0.6 0 0 0 255
3.57083 9.72905 1.29968 -0.939693 0.0 -0.34202 0.805556 0.8 0 0 0 255
3.8 9.72905 0.0 -1.0 0.0 1.87838e-07 0.75 0.8 0 0 0 255
2.91097 9.72905 2.44259 -0.766044 1.19495e-07 -0.642788 0.861111 0.8 0 0 0 255
1.9 9.72905 3.2909 -0.5 0.0 -0.866025 0.916667 0.8 9 0 0 255
1.07779 9.72905 3.59016 -1.34311 -2.95049e-07 -3.69016 0.9535 0.8 0 0 0 255
-1.9 9.72905 3.2909 0.5 0.0 -0.866025 0.0833333 0.8 25 0 0 255
-1.07779 9.72905 3.59016 1.34311 4.08132e-07 -3.69016 0.0465002 0.8 2 0 0 255
-2.91097 9.72905 2.44259 0.766044 1.23634e-07 -0.642788 0.138889 0.8 1 0 0 255
-3.57083 9.72905 1.29968 0.939693 0.0 -0.34202 0.194444 0.8 0 0 0 255
-3.8 9.72905 5.73784e-07 1.0 0.0 0.0 0.25 0.8 0 0 0 255
-3.57083 9.72905 -1.29968 0.939693 0.0 0.34202 0.305556 0.8 0 0 0 255
-2.91097 9.72905 -2.44259 0.766045 0.0 0.642787 0.361111 0.8 0 0 0 255
-1.9 9.72905 -3.2909 0.5 0.0 0.866025 0.416667 0.8 0 0 0 255
-0.659865 9.72905 -3.74227 0.173649 0.0 0.984808 0.472222 0.8 0 0 0 255
0.659861 9.72905 -3.74227 -0.173648 0.0 0.984808 0.527778 0.8 0 0 0 255
1.9 9.72905 -3.2909 -0.499999 0.0 0.866026 0.583333 0.8 0 0 0 255
2.91097 9.72905 -2.44259 -0.766044 1.23634e-07 0.642788 0.638889 0.8 0 0 0 255
3.57083 9.72905 -1.29968 -0.939692 0.0 0.342021 0.694444 0.8 0 0 0 255
3.57083 11.0 1.29968 -2.90728 0.0 -1.05816 0.805556 1.0 0 0 0 255
3.8 11.0 0.0 -3.09386 0.0 6.10948e-07 0.75 1.0 0 0 0 255
2.91097 11.0 2.44259 -2.37004 0.0 -1.9887 0.861111 1.0 0 0 0 255
1.9 11.0 3.2909 -1.54693 0.0 -2.67937 0.916667 1.0 0 0 0 255
0.659863 10.1738 3.74227 -0.805865 -1.23394e-07 -3.78489 0.972222 0.869987 0 0 0 255
0.659863 11.0 3.74227 -0.537244 0.0 -3.04686 0.972222 1.0 25 0 0 255
0.659863 10.1738 3.74227 -0.805865 -1.23394e-07 -3.78489 -0.0277778 0.869987 0 0 0 255
-0.659864 10.1738 3.74227 0.805867 0.0 -3.78489 0.0277778 0.869987 0 0 0 255
-0.659864 11.0 3.74227 0.537244 0.0 -3.04686 0.0277778 1.0 14 0 0 255
0.659863 11.0 3.74227 -0.537244 0.0 -3.04686 -0.0277778 1.0 25 0 0 255
-1.9 11.0 3.2909 1.54693 0.0 -2.67937 0.0833333 1.0 0 0 0 255
-2.91097 11.0 2.44259 2.37004 0.0 -1.9887 0.138889 1.0 0 0 0 255
-3.57083 11.0 1.29968 2.90728 0.0 -1.05816 0.194444 1.0 0 0 0 255
-3.8 11.0 5.73784e-07 3.09386 0.0 0.0 0.25 1.0 0 0 0 255
-3.57083 11.0 -1.29968 2.90728 0.0 1.05816 0.305556 1.0 0 0 0 255
-2.91097 11.0 -2.44259 2.37004 0.0 1.9887 0.361111 1.0 0 0 0 255
-1.9 11.0 -3.2909 1.54693 0.0 2.67937 0.416667 1.0 0 0 0 255
-0.659865 11.0 -3.74227 0.537245 0.0 3.04686 0.472222 1.0 0 0 0 255
0.659861 11.0 -3.74227 -0.537242 0.0 3.04686 0.527778 1.0 0 0 0 255
1.9 11.0 -3.2909 -1.54693 0.0 2.67937 0.583333 1.0 0 0 0 255
2.91097 11.0 -2.44259 -2.37004 0.0 1.9887 0.638889 1.0 0 0 0 255
3.57083 11.0 -1.29968 -2.90728 0.0 1.05817 0.694444 1.0 0 0 0 255
3.24149 0.492972 0.0 0.0 -2.79253 0.0 0.75 1.0 0 0 0 255
3.04601 0.492972 1.10866 0.0 -2.79253 0.0 0.805556 1.0 0 0 0 255
2.48313 0.492972 2.08359 0.0 -2.79253 0.0 0.861111 1.0 0 0 0 255
1.62075 0.492972 2.80722 0.0 -2.79253 0.0 0.916667 1.0 0 0 0 255
0.562879 0.492972 3.19225 0.0 -2.79253 0.0 0.972222 1.0 0 0 0 255
-0.56288 0.492972 3.19225 0.0 -2.79253 0.0 0.970821 1.0 0 0 0 255
-1.62075 0.492972 2.80722 0.0 -2.79253 0.0 0.912631 1.0 0 0 0 255
-2.48313 0.492972 2.08359 0.0 -2.79253 0.0 0.804673 1.0 0 0 0 255
-3.04601 0.492972 1.10866 0.0 -2.79253 0.0 0.659966 1.0 0 0 0 255
-3.24149 0.492972 5.61108e-07 0.0 -2.79253 0.0 0.495965 1.0 0 0 0 255
-3.04601 0.492972 -1.10866 0.0 -2.79253 0.0 0.332451 1.0 0 0 0 255
-2.48313 0.492972 -2.08359 0.0 -2.79253 0.0 0.189145 1.0 0 0 0 255
-1.62075 0.492972 -2.80722 0.0 -2.79253 0.0 0.0833335 1.0 0 0 0 255
-0.562881 0.492972 -3.19225 0.0 -2.79253 0.0 0.0277779 1.0 0 0 0 255
0.562878 0.492972 -3.19225 0.0 -2.79253 0.0 0.0291792 1.0 0 0 0 255
1.62075 0.492972 -2.80722 0.0 -2.79253 0.0 0.0873684 1.0 0 0 0 255
2.48313 0.492972 -2.08359 0.0 -2.79253 0.0 0.195327 1.0 0 0 0 255
3.04601 0.492972 -1.10866 0.0 -2.79253 0.0 0.694444 1.0 0 0 0 255
3.04601 11.0 1.10866 0.0 -3.49066 0.0 0.805556 1.0 0 0 0 255
3.24149 11.0 0.0 0.0 -3.49066 0.0 0.75 1.0 0 0 0 255
2.48313 11.0 2.08359 0.0 -3.49066 0.0 0.861111 1.0 0 0 0 255
1.62075 11.0 2.80722 0.0 -3.49066 0.0 0.916667 1.0 0 0 0 255
0.562879 11.0 3.19225 0.0 -3.49066 0.0 0.972222 1.0 2 0 0 255
-0.659864 11.0 3.74227 0.537244 0.0 -3.04686 0.970821 1.0 14 0 0 255
-0.56288 11.0 3.19225 0.0 -3.49066 0.0 0.970821 1.0 0 0 0 255
-1.9 11.0 3.2909 1.54693 0.0 -2.67937 0.912631 1.0 0 0 0 255
-1.62075 11.0 2.80722 0.0 -3.49066 0.0 0.912631 1.0 0 0 0 255
-2.91097 11.0 2.44259 2.37004 0.0 -1.9887 0.804673 1.0 0 0 0 255
-2.48313 11.0 2.08359 0.0 -3.49066 0.0 0.804673 1.0 0 0 0 255
-3.57083 11.0 1.29968 2.90728 0.0 -1.05816 0.659966 1.0 0 0 0 255
-3.04601 11.0 1.10866 0.0 -3.49066 0.0 0.659966 1.0 0 0 0 255
-3.8 11.0 5.73784e-07 3.09386 0.0 0.0 0.495965 1.0 0 0 0 255
-3.24149 11.0 5.61108e-07 0.0 -3.49066 0.0 0.495965 1.0 0 0 0 255
-3.57083 11.0 -1.29968 2.90728 0.0 1.05816 0.332451 1.0 0 0 0 255
-3.04601 11.0 -1.10866 0.0 -3.49066 0.0 0.332451 1.0 0 0 0 255
-2.91097 11.0 -2.44259 2.37004 0.0 1.9887 0.189145 1.0 0 0 0 255
-2.48313 11.0 -2.08359 0.0 -3.49066 0.0 0.189145 1.0 0 0 0 255
-1.9 11.0 -3.2909 1.54693 0.0 2.67937 0.0833335 1.0 0 0 0 255
-1.62075 11.0 -2.80722 0.0 -3.49066 0.0 0.0833335 1.0 0 0 0 255
-0.659865 11.0 -3.74227 0.537245 0.0 3.04686 0.0277779 1.0 0 0 0 255
-0.562881 11.0 -3.19225 0.0 -3.49066 0.0 0.0277779 1.0 0 0 0 255
0.659861 11.0 -3.74227 -0.537242 0.0 3.04686 0.0291792 1.0 0 0 0 255
0.562878 11.0 -3.19225 0.0 -3.49066 0.0 0.0291792 1.0 0 0 0 255
1.9 11.0 -3.2909 -1.54693 0.0 2.67937 0.0873684 1.0 0 0 0 255
1.62075 11.0 -2.80722 0.0 -3.49066 0.0 0.0873684 1.0 0 0 0 255
2.91097 11.0 -2.44259 -2.37004 0.0 1.9887 0.195327 1.0 0 0 0 255
2.48313 11.0 -2.08359 0.0 -3.49066 0.0 0.195327 1.0 0 0 0 255
3.04601 11.0 -1.10866 0.0 -3.49066 0.0 0.694444 1.0 0 0 0 255
0.659863 1.33024 4.0583 0.0 1.53401 -0.337937 -0.0277778 0.2 0 0 0 255
-0.659864 1.33024 4.0583 1.22102e-07 1.53401 -0.337937 0.0277778 0.2 23 0 0 255
-0.659864 1.8487 6.41176 0.0 1.53401 -0.337937 0.0277778 0.2 255 0 0 255
0.659862 1.8487 6.41176 0.0 1.53401 -0.337937 -0.0277778 0.2 249 0 0 255
-0.659864 2.32978 4.05413 1.83687 0.0 2.45178e-07 0.0277778 0.4 0 0 0 255
-0.659864 2.76966 5.64201 1.99675 1.64828e-07 2.25939e-07 0.0277778 0.4 255 0 0 255
0.659863 2.32978 4.05413 0.0 -1.51379 0.419347 -0.0277778 0.4 16 0 0 255
0.659862 2.76966 5.64201 0.0 -1.51379 0.419348 -0.0277778 0.4 160 0 0 255
0.659863 8.38146 4.18204 0.0 1.55321 0.234387 -0.0277778 0.6 255 0 0 255
-0.659864 8.38146 4.18204 0.0 1.55321 0.234387 0.0277778 0.6 252 0 0 255
-0.659864 8.14918 5.72128 0.0 1.55321 0.234387 0.0277778 0.6 250 0 0 255
0.659862 8.14918 5.72128 0.0 1.55321 0.234387 -0.0277778 0.6 255 0 0 255
-0.659864 9.64794 4.17956 1.38543 0.0 1.82357e-07 0.0277778 0.8 252 0 0 255
-0.659864 9.19793 6.60552 1.05371 0.0 1.64733e-07 0.0277778 0.8 255 0 0 255
0.659863 9.64794 4.17956 0.0 -1.54445 -0.286489 -0.0277778 0.8 255 0 0 255
0.659862 9.19793 6.60552 0.0 -1.54445 -0.286489 -0.0277778 0.8 255 0 0 255
0.659862 8.67208 7.03885 -0.692964 0.0 0.0 -0.0277778 0.762644 255 0 0 255
0.659862 7.63808 6.16457 -2.4318 0.0 2.05354e-07 -0.0277778 0.582756 255 0 0 255
0.659862 3.5056 6.19722 -2.45821 0.0 0.0 -0.0277778 0.422523 255 0 0 255
0.659862 2.55453 6.98423 -0.700211 0.0 0.0 -0.0277778 0.248791 255 0 0 255
-0.659864 7.63808 6.16457 0.0 0.0124116 1.57075 0.0277778 0.582756 255 0 0 255
-0.659864 3.5056 6.19722 0.0 0.0124117 1.57075 0.0277778 0.422523 255 0 0 255
-0.659864 8.67208 7.03885 0.692964 0.0 0.0 0.0277778 0.762644 255 0 0 255
-0.659864 2.55453 6.98423 0.700211 0.0 0.0 0.0277778 0.248791 255 0 0 255
0.659863 1.33024 4.0583 0.0 1.53401 -0.337937 1.01136 0.195813 0 0 0 255
0.659863 2.32978 4.05413 0.0 -1.51379 0.419347 0.977615 0.401123 16 0 0 255
0.659863 1.33024 4.0583 0.0 1.53401 -0.337937 -0.0277778 0.192505 0 0 0 255
-0.659864 1.33024 4.0583 1.22102e-07 1.53401 -0.337937 0.0277778 0.192505 23 0 0 255
0.659863 2.32978 4.05413 0.0 -1.51379 0.419347 1.05263 0.418811 16 0 0 255
0.659863 1.33024 4.0583 0.0 1.53401 -0.337937 1.04752 0.213936 0 0 0 255
-0.659864 2.32978 4.05413 1.83687 0.0 2.45178e-07 0.0277778 0.391455 0 0 0 255
0.659863 2.32978 4.05413 0.0 -1.51379 0.419347 -0.0277778 0.391455 16 0 0 255
0.659863 8.38146 4.18204 0.0 1.55321 0.234387 0.979865 0.600328 255 0 0 255
0.659863 9.64794 4.17956 0.0 -1.54445 -0.286489 1.02537 0.806002 255 0 0 255
0.659863 8.38146 4.18204 0.0 1.55321 0.234387 -0.0277778 0.613278 255 0 0 255
-0.659864 8.38146 4.18204 0.0 1.55321 0.234387 0.0277778 0.613278 252 0 0 255
0.659863 9.64794 4.17956 0.0 -1.54445 -0.286489 1.04894 0.787707 255 0 0 255
0.659863 8.38146 4.18204 0.0 1.55321 0.234387 1.05516 0.588508 255 0 0 255
-0.659864 9.64794 4.17956 1.38543 0.0 1.82357e-07 0.0277778 0.808794 252 0 0 255
0.659863 9.64794 4.17956 0.0 -1.54445 -0.286489 -0.0277778 0.808794 255 0 0 255
3 0 1 2
3 2 3 4
3 4 5 6
3 2 4 6
3 6 7 8
3 8 9 10
3 6 8 10
3 10 11 12
3 12 13 14
3 10 12 14
3 6 10 14
3 2 6 14
3 14 15 16
3 2 14 16
3 0 2 16
3 17 0 16
3 16 15 18
3 18 19 16
3 15 14 20
3 20 18 15
3 14 13 21
3 21 20 14
3 12 22 23
3 13 12 23
3 13 23 21
3 24 25 26
3 26 27 24
3 25 28 29
3 29 30 26
3 25 29 26
3 28 31 32
3 32 29 28
3 31 33 34
3 34 32 31
3 33 35 36
3 36 34 33
3 35 37 38
3 38 36 35
3 37 39 40
3 40 38 37
3 39 41 42
3 42 40 39
3 41 43 44
3 44 42 41
3 43 45 46
3 46 44 43
3 45 47 48
3 48 46 45
3 47 49 50
3 50 48 47
3 49 51 52
3 52 50 49
3 51 16 19
3 19 52 51
3 19 18 53
3 53 54 19
3 18 20 55
3 55 53 18
3 20 21 56
3 56 55 20
3 21 23 57
3 57 56 21
3 30 29 58
3 58 59 30
3 29 32 60
3 60 58 29
3 32 34 61
3 61 60 32
3 34 36 62
3 62 61 34
3 36 38 63
3 63 62 36
3 38 40 64
3 64 63 38
3 40 42 65
3 65 64 40
3 42 44 66
3 66 65 42
3 44 46 67
3 67 66 44
3 46 48 68
3 68 67 46
3 48 50 69
3 69 68 48
3 50 52 70
3 70 69 50
3 52 19 54
3 54 70 52
3 54 53 71
3 71 72 54
3 53 55 73
3 73 71 53
3 55 56 74
3 74 73 55
3 56 57 75
3 75 76 77
3 56 75 77
3 56 77 74
3 78 79 80
3 80 81 78
3 59 58 82
3 82 83 80
3 59 82 80
3 79 59 80
3 58 60 84
3 84 82 58
3 60 61 85
3 85 84 60
3 61 62 86
3 86 85 61
3 62 63 87
3 87 86 62
3 63 64 88
3 88 87 63
3 64 65 89
3 89 88 64
3 65 66 90
3 90 89 65
3 66 67 91
3 91 90 66
3 67 68 92
3 92 91 67
3 68 69 93
3 93 92 68
3 69 70 94
3 94 93 69
3 70 54 72
3 72 94 70
3 72 71 95
3 95 96 72
3 71 73 97
3 97 95 71
3 73 74 98
3 98 97 73
3 74 77 99
3 99 98 74
3 83 82 100
3 100 101 83
3 82 84 102
3 102 100 82
3 84 85 103
3 103 102 84
3 85 86 104
3 104 103 85
3 86 87 105
3 105 104 86
3 87 88 106
3 106 105 87
3 88 89 107
3 107 106 88
3 89 90 108
3 108 107 89
3 90 91 109
3 109 108 90
3 91 92 110
3 110 109 91
3 92 93 111
3 111 110 92
3 93 94 112
3 112 111 93
3 94 72 96
3 96 112 94
3 96 95 113
3 113 114 96
3 95 97 115
3 115 113 95
3 97 98 116
3 116 115 97
3 98 99 117
3 98 117 118
3 98 118 116
3 119 120 121
3 121 122 119
3 101 100 123
3 101 123 121
3 120 101 121
3 100 102 124
3 124 123 100
3 102 103 125
3 125 124 102
3 103 104 126
3 126 125 103
3 104 105 127
3 127 126 104
3 105 106 128
3 128 127 105
3 106 107 129
3 129 128 106
3 107 108 130
3 130 129 107
3 108 109 131
3 131 130 108
3 109 110 132
3 132 131 109
3 110 111 133
3 133 132 110
3 111 112 134
3 134 133 111
3 112 96 114
3 114 134 112
3 135 136 137
3 137 138 139
3 139 140 141
3 137 139 141
3 141 142 143
3 143 144 145
3 141 143 145
3 145 146 147
3 147 148 149
3 145 147 149
3 141 145 149
3 137 141 149
3 149 150 151
3 137 149 151
3 135 137 151
3 152 135 151
3 114 113 153
3 153 154 114
3 113 115 155
3 155 153 113
3 115 116 156
3 156 155 115
3 116 118 157
3 157 156 116
3 118 158 159
3 159 157 118
3 158 160 161
3 161 159 158
3 160 162 163
3 163 161 160
3 162 164 165
3 165 163 162
3 164 166 167
3 167 165 164
3 166 168 169
3 169 167 166
3 168 170 171
3 171 169 168
3 170 172 173
3 173 171 170
3 172 174 175
3 175 173 172
3 174 176 177
3 177 175 174
3 176 178 179
3 179 177 176
3 178 180 181
3 181 179 178
3 180 134 182
3 182 181 180
3 134 114 154
3 154 182 134
3 154 153 136
3 136 135 154
3 153 155 137
3 137 136 153
3 155 156 138
3 138 137 155
3 156 157 139
3 139 138 156
3 157 159 140
3 140 139 157
3 159 161 141
3 141 140 159
3 161 163 142
3 142 141 161
3 163 165 143
3 143 142 163
3 165 167 144
3 144 143 165
3 167 169 145
3 145 144 167
3 169 171 146
3 146 145 169
3 171 173 147
3 147 146 171
3 173 175 148
3 148 147 173
3 175 177 149
3 149 148 175
3 177 179 150
3 150 149 177
3 179 181 151
3 151 150 179
3 181 182 152
3 152 151 181
3 182 154 135
3 135 152 182
3 183 184 185
3 185 186 183
3 184 187 188
3 188 185 184
3 187 189 190
3 190 188 187
3 189 183 186
3 186 190 189
3 191 192 193
3 193 194 191
3 192 195 196
3 196 193 192
3 195 197 198
3 198 196 195
3 197 191 194
3 194 198 197
3 199 200 201
3 201 202 199
3 200 203 204
3 204 201 200
3 203 205 206
3 206 204 203
3 205 199 202
3 202 206 205
3 193 203 200
3 200 194 193
3 196 205 203
3 203 193 196
3 198 199 205
3 205 196 198
3 194 200 199
3 199 198 194
3 185 206 202
3 202 186 185
3 188 204 206
3 206 185 188
3 190 201 204
3 204 188 190
3 186 202 201
3 201 190 186
3 22 207 23
3 26 30 184
3 208 75 57
3 59 79 187
3 209 27 26
3 26 210 209
3 211 57 23
3 23 212 211
3 213 79 78
3 78 214 213
3 184 30 59
3 59 187 184
3 77 76 215
3 80 83 192
3 216 117 99
3 101 120 195
3 217 81 80
3 80 218 217
3 219 99 77
3 77 220 219
3 221 120 119
3 119 222 221
3 192 83 101
3 101 195 192
