ply
format ascii 1.0
element vertex 140
property float x
property float y
property float z
property float nx
property float ny
property float nz
property float texture_u
property float texture_v
property uchar red
property uchar green
property uchar blue
property uchar alpha
element face 112
property list uchar int vertex_index
end_header
-1.20715 0.192845 0.269165 -0.0176262 1.67102 0.0 0.340974 0.26028 255 0 0 255
-1.20715 0.192845 -0.269165 -0.0176262 1.67102 0.0 0.340974 0.33012 255 0 0 255
-2.63113 0.177825 -0.412508 -0.0155099 1.47039 0.0 0.156235 0.348717 255 0 0 255
-2.63113 0.177825 0.412508 -0.0952483 2.91095 -2.04304e-07 0.156235 0.241684 255 0 0 255
-1.20715 0.410924 -0.269165 0.0176335 -1.67102 0.0 0.344745 0.139459 255 0 0 255
-1.20715 0.410924 0.269165 0.0176335 -1.67102 0.0 0.344745 0.209364 255 0 0 255
-2.63113 0.395898 0.412508 0.188341 -2.90349 0.0 0.159834 0.227978 255 0 0 255
-2.63113 0.395898 -0.412508 0.0155164 -1.47039 0.0 0.159834 0.120845 255 0 0 255
-1.20715 0.192845 -0.269165 -0.0176262 1.67102 0.0 0.3449 0.966286 255 0 0 255
-1.20715 0.410924 -0.269165 0.0176335 -1.67102 0.0 0.3449 0.994618 255 0 0 255
-2.63113 0.395898 -0.412508 0.0155164 -1.47039 0.0 0.159904 0.992665 255 0 0 255
-2.63113 0.177825 -0.412508 -0.0155099 1.47039 0.0 0.159904 0.964335 255 0 0 255
-1.20715 0.192845 0.269165 -0.0176262 1.67102 0.0 0.658543 0.0789372 255 0 0 255
-1.20715 0.410924 0.269165 0.0176335 -1.67102 0.0 0.658543 0.107268 255 0 0 255
0.0816147 0.303225 0.169816 -0.127122 0.0 -1.64903 0.491116 0.0932769 30 224 0 255
0.0816147 0.11729 0.169816 -0.116245 0.0 -1.50794 0.491116 0.0691217 9 245 0 255
-3.83155 0.111379 0.25773 1.5708 0.0 0.0 0.818793 0.92928 255 0 0 255
-3.83155 0.111379 -0.25773 1.5708 0.0 0.0 0.885322 0.92928 255 0 0 255
-3.83155 0.251132 -0.25773 1.5708 0.0 0.0 0.885322 0.947318 253 1 0 255
-3.83155 0.251132 0.25773 1.5708 0.0 0.0 0.818793 0.947318 255 0 0 255
1.23668 -0.0837804 0.151973 0.271999 1.56252 0.0 0.658022 0.275484 0 255 0 255
1.23668 -0.0837804 -0.151973 0.271999 1.56252 0.0 0.658022 0.314916 0 255 0 255
0.0816147 0.11729 -0.169816 0.363205 3.17731 3.85446e-07 0.508171 0.317231 0 254 0 255
0.0816147 0.11729 0.169816 -0.116245 0.0 -1.50794 0.508171 0.273169 9 245 0 255
-3.83155 0.111379 -0.25773 1.5708 0.0 0.0 0.0005 0.328636 255 0 0 255
-3.83155 0.111379 0.25773 1.5708 0.0 0.0 0.0005 0.261764 255 0 0 255
1.23668 0.086612 -0.152174 -0.292297 -1.55864 0.0 0.66209 0.154651 0 255 0 255
1.23668 0.086612 0.152174 -0.292296 -1.55864 0.0 0.66209 0.194172 0 255 0 255
0.0816147 0.303225 0.169816 -0.127122 0.0 -1.64903 0.512099 0.196463 30 224 0 255
0.0816147 0.303225 -0.169816 -0.423959 -3.17087 0.0 0.512099 0.15236 36 218 0 255
-3.83155 0.251132 0.25773 1.5708 0.0 0.0 0.00395271 0.207879 255 0 0 255
-3.83155 0.251132 -0.25773 1.5708 0.0 0.0 0.00395271 0.140944 253 1 0 255
1.23668 -0.0837804 -0.151973 0.271999 1.56252 0.0 0.662389 0.930348 0 255 0 255
1.23668 0.086612 -0.152174 -0.292297 -1.55864 0.0 0.662389 0.952485 0 255 0 255
0.0816147 0.303225 -0.169816 -0.423959 -3.17087 0.0 0.512329 0.980626 36 218 0 255
0.0816147 0.11729 -0.169816 0.363205 3.17731 3.85446e-07 0.512329 0.95647 0 254 0 255
-3.83155 0.251132 -0.25773 1.5708 0.0 0.0 0.00395271 0.973858 253 1 0 255
-3.83155 0.111379 -0.25773 1.5708 0.0 0.0 0.00395271 0.955702 255 0 0 255
-3.83155 0.111379 0.25773 1.5708 0.0 0.0 0.999486 0.0683537 255 0 0 255
-3.83155 0.251132 0.25773 1.5708 0.0 0.0 0.999486 0.0865094 255 0 0 255
-2.63113 0.395898 0.412508 0.188341 -2.90349 0.0 0.843536 0.105316 255 0 0 255
-2.63113 0.177825 0.412508 -0.0952483 2.91095 -2.04304e-07 0.843536 0.0769859 255 0 0 255
1.23668 0.086612 0.152174 -0.292296 -1.55864 0.0 0.341059 0.0651362 0 255 0 255
1.23668 -0.0837804 0.151973 0.271999 1.56252 0.0 0.341059 0.0430001 0 255 0 255
1.79991 -0.287302 0.461834 0.339838 0.940484 0.0 0.731093 0.235285 0 255 0 255
1.79991 -0.116909 0.461834 0.482063 0.00103421 -0.876136 0.267888 0.0386962 0 244 10 255
1.79991 -0.116909 -0.461834 -0.339838 -0.940484 0.0 0.735229 0.11444 0 247 7 255
1.79991 -0.287302 -0.461834 0.482303 0.00103391 0.876004 0.735561 0.903908 0 255 0 255
1.79991 -0.287302 -0.461834 0.482303 0.00103391 0.876004 0.731093 0.355116 0 255 0 255
1.79991 -0.116909 0.461834 0.482063 0.00103421 -0.876136 0.735229 0.234383 0 244 10 255
2.64476 -0.410924 0.417004 0.144783 0.989463 0.0 0.840699 0.241101 0 0 255 255
2.64476 -0.240532 -0.250202 -0.126789 -0.866489 0.0 0.844938 0.141921 0 0 255 255
2.64476 -0.240532 -0.0834007 -0.309703 -2.11655 0.0 0.844938 0.163581 0 0 255 255
2.64476 -0.240532 0.417004 0.0530952 -0.998589 0.0 0.844938 0.228561 0 0 255 255
2.64476 -0.240532 0.250202 0.0827316 -1.55598 0.0 0.844938 0.206901 0 0 255 255
3.54993 -0.192404 0.261643 0.0530952 -0.998589 0.0 0.962479 0.208387 0 0 255 255
2.64476 -0.410924 0.417004 0.144783 0.989463 0.0 0.158131 0.0005 0 0 255 255
2.64476 -0.240532 0.417004 0.0530952 -0.998589 0.0 0.158131 0.0226361 0 0 255 255
3.83155 -0.138625 0.332559 -0.0099042 0.0 -0.139194 0.00395271 0.0358751 0 0 255 255
2.64476 -0.240532 0.0834007 -0.167022 -1.14145 0.0 0.844938 0.185241 0 0 255 255
2.64476 -0.410924 0.250202 0.126789 0.866489 0.0 0.840699 0.26274 0 30 224 255
2.64476 -0.410924 0.0834007 0.309703 2.11655 0.0 0.840699 0.28438 0 0 255 255
2.64476 -0.410924 -0.0834007 0.167022 1.14145 0.0 0.840699 0.30602 0 1 253 255
2.64476 -0.410924 -0.250202 0.262601 1.79465 0.0 0.840699 0.32766 0 0 255 255
2.64476 -0.240532 -0.417004 -0.144783 -0.989463 0.0 0.844938 0.120261 0 0 255 255
2.64476 -0.240532 0.0834007 -0.167022 -1.14145 0.0 0.0177636 0.357405 0 0 255 255
2.64476 -0.410924 0.0834007 0.309703 2.11655 0.0 0.0177636 0.335413 0 0 255 255
2.64476 -0.410924 0.250202 0.126789 0.866489 0.0 0.0392922 0.335413 0 30 224 255
2.64476 -0.240532 -0.0834007 -0.309703 -2.11655 0.0 0.549482 0.340153 0 0 255 255
2.64476 -0.410924 -0.0834007 0.167022 1.14145 0.0 0.549482 0.31815 0 1 253 255
3.54993 -0.320103 -0.0419929 -0.045698 1.31041e-07 0.998955 0.666371 0.329878 0 0 255 255
2.64476 -0.410924 -0.0834007 0.167022 1.14145 0.0 0.539936 0.31815 0 1 253 255
2.64476 -0.240532 -0.0834007 -0.309703 -2.11655 0.0 0.539936 0.340142 0 0 255 255
2.64476 -0.240532 -0.250202 -0.126789 -0.866489 0.0 0.518407 0.340142 0 0 255 255
2.64476 -0.410924 0.0834007 0.309703 2.11655 0.0 0.509386 0.31815 0 0 255 255
2.64476 -0.240532 0.0834007 -0.167022 -1.14145 0.0 0.509386 0.340153 0 0 255 255
3.83155 -0.138625 0.0289236 -0.00640781 0.0 -0.139594 0.35613 0.353313 0 0 255 255
2.64476 -0.410924 -0.250202 0.262601 1.79465 0.0 0.816616 0.92928 0 0 255 255
2.64476 -0.240532 -0.250202 -0.126789 -0.866489 0.0 0.816616 0.951275 0 0 255 255
3.54993 -0.192404 -0.261643 -0.012638 0.0 -0.99992 0.699773 0.957488 0 0 255 255
2.64476 -0.410924 -0.250202 0.262601 1.79465 0.0 0.518407 0.31815 0 0 255 255
2.64476 -0.410924 -0.417004 -0.0529882 0.0 0.998595 0.845319 0.887848 0 28 226 255
2.64476 -0.240532 -0.417004 -0.144783 -0.989463 0.0 0.845319 0.909984 0 0 255 255
1.79991 -0.116909 -0.461834 -0.339838 -0.940484 0.0 0.735561 0.926044 0 247 7 255
3.54993 -0.320103 -0.345629 -0.0786086 0.0 0.996906 0.962914 0.899647 0 0 255 255
2.64476 -0.240532 0.250202 0.0827316 -1.55598 0.0 0.0392922 0.357405 0 0 255 255
2.64476 -0.240532 0.250202 0.0827316 -1.55598 0.0 0.35613 0.0432112 0 0 255 255
2.64476 -0.410924 0.250202 0.126789 0.866489 0.0 0.35613 0.0212163 0 30 224 255
3.54993 -0.320103 0.261643 -0.012638 0.0 0.99992 0.472972 0.0329399 0 0 255 255
1.79991 -0.287302 0.461834 0.339838 0.940484 0.0 0.267888 0.0165601 0 255 0 255
3.54993 -0.320103 -0.261643 -0.012638 0.0 -0.99992 0.699773 0.941004 0 0 255 255
3.54993 -0.192404 -0.345629 -0.0786086 0.0 0.996906 0.962914 0.916237 0 0 255 255
3.54993 -0.192404 -0.041993 -0.0456981 0.0 0.998955 0.666371 0.346368 0 0 255 255
3.54993 -0.320103 0.041993 -0.0455762 -0.00121663 -0.99896 0.392496 0.329878 0 0 255 255
3.54993 -0.192404 0.261643 0.0530952 -0.998589 0.0 0.472972 0.0494238 0 0 255 255
3.54993 -0.320103 0.345629 -0.0843833 0.059313 -0.994667 0.0405383 0.0122988 0 0 255 255
2.64476 -0.410924 -0.417004 -0.0529882 0.0 0.998595 0.840699 0.3493 0 28 226 255
3.54993 -0.320103 -0.261643 -0.012638 0.0 -0.99992 0.958131 0.329144 0 0 255 255
3.83155 -0.138625 -0.274712 -0.0463052 0.0 -0.997773 0.663421 0.96443 0 0 255 255
3.83155 -0.213293 -0.274712 -0.0896091 0.0 -1.93087 0.663421 0.954791 0 0 255 255
3.54993 -0.320103 -0.345629 -0.0786086 0.0 0.996906 0.958131 0.34004 0 0 255 255
3.54993 -0.320103 0.041993 -0.0455762 -0.00121663 -0.99896 0.958131 0.289752 0 0 255 255
3.54993 -0.320103 -0.0419929 -0.045698 1.31041e-07 0.998955 0.958131 0.300648 0 0 255 255
3.83155 -0.213293 0.0289236 -0.0896087 -3.85335e-07 -1.93087 0.35613 0.343671 0 0 255 255
3.54993 -0.320103 0.345629 -0.0843833 0.059313 -0.994667 0.958131 0.25036 0 0 255 255
3.54993 -0.320103 0.261643 -0.012638 0.0 0.99992 0.958131 0.261256 0 0 255 255
3.83155 -0.213293 0.332559 -0.0896091 0.0 -1.93087 0.00395271 0.0261748 0 0 254 255
3.54993 -0.192404 -0.345629 -0.0786086 0.0 0.996906 0.962479 0.129529 0 0 255 255
3.54993 -0.192404 -0.041993 -0.0456981 0.0 0.998955 0.962479 0.168958 0 0 255 255
3.83155 -0.138625 0.332559 -0.0099042 0.0 -0.139194 0.999048 0.217596 0 0 255 255
3.83155 -0.213293 0.332559 -0.0896091 0.0 -1.93087 0.570759 0.342319 0 0 254 255
3.83155 -0.138625 0.332559 -0.0099042 0.0 -0.139194 0.570759 0.351956 0 0 255 255
3.83155 -0.138625 0.274712 -1.0 0.0 0.0 0.563292 0.351956 0 0 254 255
3.83155 -0.213293 0.0289236 -0.0896087 -3.85335e-07 -1.93087 0.632908 0.345771 0 0 255 255
3.83155 -0.138625 0.0289236 -0.00640781 0.0 -0.139594 0.632908 0.355409 0 0 255 255
3.83155 -0.138625 -0.0289235 -1.0 0.0 0.0 0.625441 0.355409 0 0 255 255
3.83155 -0.138625 0.0289236 -0.00640781 0.0 -0.139594 0.999048 0.178167 0 0 255 255
3.83155 -0.213293 -0.274712 -0.0896091 0.0 -1.93087 0.460272 0.345771 0 0 255 255
3.83155 -0.138625 -0.274712 -0.0463052 0.0 -0.997773 0.460272 0.355409 0 0 255 255
3.83155 -0.138625 -0.332559 -1.0 0.0 0.0 0.452806 0.355409 0 0 255 255
3.54993 -0.192404 -0.261643 -0.012638 0.0 -0.99992 0.962479 0.140436 0 0 255 255
3.83155 -0.213293 0.332559 -0.0896091 0.0 -1.93087 0.994666 0.252056 0 0 254 255
3.83155 -0.213293 0.274712 -0.0202178 0.0 0.435648 0.509325 0.0467274 0 0 254 255
3.83155 -0.213293 -0.274712 -0.0896091 0.0 -1.93087 0.994666 0.33084 0 0 255 255
3.83155 -0.213293 -0.332559 -0.0202177 0.0 0.435648 0.9995 0.913523 0 0 255 255
3.83155 -0.213293 0.0289236 -0.0896087 -3.85335e-07 -1.93087 0.994666 0.291448 0 0 255 255
3.83155 -0.213293 -0.0289235 -0.0202177 0.0 0.435648 0.702738 0.343671 0 0 255 255
3.83155 -0.213293 -0.332559 -0.0202177 0.0 0.435648 0.994666 0.338344 0 0 255 255
3.83155 -0.213293 -0.332559 -0.0202177 0.0 0.435648 0.452806 0.345771 0 0 255 255
3.83155 -0.213293 0.274712 -0.0202178 0.0 0.435648 0.994666 0.259561 0 0 254 255
3.83155 -0.213293 0.274712 -0.0202178 0.0 0.435648 0.563292 0.342319 0 0 254 255
3.83155 -0.213293 -0.0289235 -0.0202177 0.0 0.435648 0.994666 0.298953 0 0 255 255
3.83155 -0.213293 -0.0289235 -0.0202177 0.0 0.435648 0.625441 0.345771 0 0 255 255
3.83155 -0.138625 0.274712 -1.0 0.0 0.0 0.509325 0.0563658 0 0 254 255
3.83155 -0.138625 0.274712 -1.0 0.0 0.0 0.999048 0.210084 0 0 254 255
3.83155 -0.138625 -0.332559 -1.0 0.0 0.0 0.999048 0.131227 0 0 255 255
3.83155 -0.138625 -0.332559 -1.0 0.0 0.0 0.9995 0.923223 0 0 255 255
3.83155 -0.138625 -0.0289235 -1.0 0.0 0.0 0.702738 0.353313 0 0 255 255
3.83155 -0.138625 -0.0289235 -1.0 0.0 0.0 0.999048 0.170655 0 0 255 255
3.83155 -0.138625 -0.274712 -0.0463052 0.0 -0.997773 0.999048 0.138738 0 0 255 255
3 0 1 2
3 2 3 0
3 4 5 6
3 6 7 4
3 8 9 10
3 10 11 8
3 12 13 14
3 14 15 12
3 16 17 18
3 18 19 16
3 20 21 22
3 22 23 20
3 23 22 1
3 1 0 23
3 24 25 3
3 3 2 24
3 26 27 28
3 28 29 26
3 29 28 5
3 5 4 29
3 30 31 7
3 7 6 30
3 32 33 34
3 34 35 32
3 35 34 9
3 9 8 35
3 36 37 11
3 11 10 36
3 38 39 40
3 40 41 38
3 41 40 13
3 13 12 41
3 42 43 15
3 15 14 42
3 21 20 44
3 43 42 45
3 27 26 46
3 33 32 47
3 44 48 21
3 46 49 27
3 48 44 50
3 49 51 52
3 53 54 55
3 56 57 58
3 49 59 54
3 48 60 61
3 48 62 63
3 49 46 64
3 65 66 67
3 68 69 70
3 71 72 73
3 74 75 76
3 77 78 79
3 73 80 71
3 81 82 83
3 82 81 84
3 67 85 65
3 86 87 88
3 45 89 43
3 49 54 53
3 79 90 77
3 84 91 82
3 70 92 68
3 76 93 74
3 88 94 86
3 58 95 56
3 47 83 33
3 83 47 81
3 48 63 96
3 96 63 97
3 98 99 90
3 97 100 96
3 101 102 62
3 76 103 93
3 104 105 60
3 58 106 95
3 89 45 57
3 57 56 89
3 60 50 104
3 48 50 60
3 51 64 107
3 49 64 51
3 62 61 101
3 48 61 62
3 49 52 59
3 59 52 108
3 55 109 53
3 110 111 112
3 113 114 115
3 108 116 59
3 117 118 119
3 107 120 51
3 105 104 121
3 94 88 122
3 100 97 123
3 91 84 124
3 102 101 125
3 92 70 126
3 123 127 100
3 119 128 117
3 121 129 105
3 112 130 110
3 125 131 102
3 115 132 113
3 122 133 94
3 109 55 134
3 120 107 135
3 124 136 91
3 126 137 92
3 116 108 138
3 135 139 120
3 90 79 98
